<?xml version="1.0" encoding="UTF-8"?>
<!DOCTYPE svg PUBLIC "-//W3C//DTD SVG 1.1//EN" "http://www.w3.org/Graphics/SVG/1.1/DTD/svg11.dtd">
<svg xmlns="http://www.w3.org/2000/svg" version="1.1" width="1999px" height="1999px" style="shape-rendering:geometricPrecision; text-rendering:geometricPrecision; image-rendering:optimizeQuality; fill-rule:evenodd; clip-rule:evenodd" xmlns:xlink="http://www.w3.org/1999/xlink">
<g><path style="opacity:1" fill="#129fec" d="M 955.5,-0.5 C 984.5,-0.5 1013.5,-0.5 1042.5,-0.5C 1329.84,17.0948 1568.34,133.095 1758,347.5C 1905.68,522.329 1985.85,724.662 1998.5,954.5C 1998.5,984.167 1998.5,1013.83 1998.5,1043.5C 1983.88,1296.98 1889.38,1514.98 1715,1697.5C 1529.99,1882.56 1306.15,1982.89 1043.5,1998.5C 1013.83,1998.5 984.167,1998.5 954.5,1998.5C 692.359,1982.98 468.859,1882.98 284,1698.5C 108.879,1515.51 14.046,1296.84 -0.5,1042.5C -0.5,1013.5 -0.5,984.5 -0.5,955.5C 15.747,682.554 122.414,452.388 319.5,265C 499.398,101.606 711.398,13.106 955.5,-0.5 Z"/></g>
<g><path style="opacity:1" fill="#05324a" d="M 776.5,624.5 C 614.167,624.5 451.833,624.5 289.5,624.5C 289.5,873.833 289.5,1123.17 289.5,1372.5C 288.5,1123 288.167,873.334 288.5,623.5C 451.334,623.167 614.001,623.5 776.5,624.5 Z"/></g>
<g><path style="opacity:1" fill="#000000" d="M 776.5,624.5 C 816.799,664.299 856.965,704.299 897,744.5C 897.5,953.833 897.667,1163.17 897.5,1372.5C 694.833,1372.5 492.167,1372.5 289.5,1372.5C 289.5,1123.17 289.5,873.833 289.5,624.5C 451.833,624.5 614.167,624.5 776.5,624.5 Z"/></g>
<g><path style="opacity:1" fill="#000101" d="M 1343.5,624.5 C 1420.42,619.748 1487.42,642.915 1544.5,694C 1591.82,740.157 1618.66,796.324 1625,862.5C 1625.5,893.832 1625.67,925.165 1625.5,956.5C 1637.32,959.666 1647.16,965.999 1655,975.5C 1663.63,986.43 1669.3,998.764 1672,1012.5C 1672.67,1111.83 1672.67,1211.17 1672,1310.5C 1665.38,1345.45 1644.55,1365.95 1609.5,1372C 1447.5,1372.67 1285.5,1372.67 1123.5,1372C 1090.13,1364.63 1070.3,1344.13 1064,1310.5C 1063.33,1212.17 1063.33,1113.83 1064,1015.5C 1068.26,986.963 1083.59,966.963 1110,955.5C 1110.07,921.144 1110.74,886.811 1112,852.5C 1124.25,767.08 1167.09,702.247 1240.5,658C 1272.7,639.878 1307.03,628.712 1343.5,624.5 Z"/></g>
<g><path style="opacity:1" fill="#fefefe" d="M 850.5,764.5 C 850.5,951.5 850.5,1138.5 850.5,1325.5C 679.167,1325.5 507.833,1325.5 336.5,1325.5C 336.5,1107.5 336.5,889.5 336.5,671.5C 476.5,671.5 616.5,671.5 756.5,671.5C 756.5,702.5 756.5,733.5 756.5,764.5C 787.833,764.5 819.167,764.5 850.5,764.5 Z"/></g>
<g><path style="opacity:1" fill="#cacaca" d="M 1578.5,998.5 C 1562.83,998.5 1547.17,998.5 1531.5,998.5C 1531.96,950.809 1531.46,903.143 1530,855.5C 1515.6,787.435 1475.1,743.268 1408.5,723C 1343.14,708.787 1287.98,726.287 1243,775.5C 1221.9,800.713 1209.23,829.713 1205,862.5C 1204.5,907.832 1204.33,953.165 1204.5,998.5C 1188.83,998.5 1173.17,998.5 1157.5,998.5C 1157.33,952.832 1157.5,907.165 1158,861.5C 1167.74,785.46 1206.24,729.293 1273.5,693C 1318.44,670.868 1365.44,665.201 1414.5,676C 1486.33,694.5 1536.5,738 1565,806.5C 1572.02,824.893 1576.35,843.893 1578,863.5C 1578.5,908.499 1578.67,953.499 1578.5,998.5 Z"/></g>
<g><path style="opacity:1" fill="#d7d7d7" d="M 850.5,764.5 C 819.167,764.5 787.833,764.5 756.5,764.5C 756.5,733.5 756.5,702.5 756.5,671.5C 616.5,671.5 476.5,671.5 336.5,671.5C 336.5,889.5 336.5,1107.5 336.5,1325.5C 507.833,1325.5 679.167,1325.5 850.5,1325.5C 679.001,1326.5 507.334,1326.83 335.5,1326.5C 335.5,1107.83 335.5,889.167 335.5,670.5C 476.168,670.167 616.835,670.5 757.5,671.5C 788.215,702.881 819.215,733.881 850.5,764.5 Z"/></g>
<g><path style="opacity:1" fill="#000000" d="M 1531.5,998.5 C 1422.5,998.5 1313.5,998.5 1204.5,998.5C 1204.33,953.165 1204.5,907.832 1205,862.5C 1209.23,829.713 1221.9,800.713 1243,775.5C 1287.98,726.287 1343.14,708.787 1408.5,723C 1475.1,743.268 1515.6,787.435 1530,855.5C 1531.46,903.143 1531.96,950.809 1531.5,998.5 Z"/></g>
<g><path style="opacity:1" fill="#c8c8c8" d="M 382.5,741.5 C 452.665,740.501 522.998,740.167 593.5,740.5C 593.826,748.684 593.492,756.684 592.5,764.5C 592.5,756.833 592.5,749.167 592.5,741.5C 522.5,741.5 452.5,741.5 382.5,741.5 Z"/></g>
<g><path style="opacity:1" fill="#a5a6a5" d="M 382.5,741.5 C 452.5,741.5 522.5,741.5 592.5,741.5C 592.5,749.167 592.5,756.833 592.5,764.5C 522.5,764.5 452.5,764.5 382.5,764.5C 382.5,756.833 382.5,749.167 382.5,741.5 Z"/></g>
<g><path style="opacity:1" fill="#a5a6a5" d="M 382.5,811.5 C 522.833,811.5 663.167,811.5 803.5,811.5C 803.5,819.167 803.5,826.833 803.5,834.5C 663.167,834.5 522.833,834.5 382.5,834.5C 382.5,826.833 382.5,819.167 382.5,811.5 Z"/></g>
<g><path style="opacity:1" fill="#a7a7a7" d="M 382.5,881.5 C 507.167,881.5 631.833,881.5 756.5,881.5C 756.5,889.5 756.5,897.5 756.5,905.5C 631.833,905.5 507.167,905.5 382.5,905.5C 382.5,897.5 382.5,889.5 382.5,881.5 Z"/></g>
<g><path style="opacity:1" fill="#a5a6a5" d="M 779.5,951.5 C 779.5,959.167 779.5,966.833 779.5,974.5C 647.167,974.5 514.833,974.5 382.5,974.5C 382.5,966.833 382.5,959.167 382.5,951.5C 514.833,951.5 647.167,951.5 779.5,951.5 Z"/></g>
<g><path style="opacity:1" fill="#cbcbcb" d="M 779.5,951.5 C 780.492,959.316 780.826,967.316 780.5,975.5C 647.666,975.833 514.999,975.5 382.5,974.5C 514.833,974.5 647.167,974.5 779.5,974.5C 779.5,966.833 779.5,959.167 779.5,951.5 Z"/></g>
<g><path style="opacity:1" fill="#e29e04" d="M 1134.5,998.5 C 1134.5,1107.5 1134.5,1216.5 1134.5,1325.5C 1290.5,1325.5 1446.5,1325.5 1602.5,1325.5C 1603.5,1325.5 1604.5,1325.5 1605.5,1325.5C 1447.33,1326.67 1289,1326.83 1130.5,1326C 1120.44,1323.61 1113.94,1317.44 1111,1307.5C 1110.33,1210.5 1110.33,1113.5 1111,1016.5C 1114.73,1005.06 1122.56,999.06 1134.5,998.5 Z"/></g>
<g><path style="opacity:1" fill="#fec73c" d="M 1134.5,998.5 C 1142.17,998.5 1149.83,998.5 1157.5,998.5C 1173.17,998.5 1188.83,998.5 1204.5,998.5C 1313.5,998.5 1422.5,998.5 1531.5,998.5C 1547.17,998.5 1562.83,998.5 1578.5,998.5C 1586.5,998.5 1594.5,998.5 1602.5,998.5C 1602.5,1107.5 1602.5,1216.5 1602.5,1325.5C 1446.5,1325.5 1290.5,1325.5 1134.5,1325.5C 1134.5,1216.5 1134.5,1107.5 1134.5,998.5 Z"/></g>
<g><path style="opacity:1" fill="#e9a200" d="M 1602.5,998.5 C 1613.69,999.85 1621.19,1005.85 1625,1016.5C 1625.67,1113.83 1625.67,1211.17 1625,1308.5C 1621.71,1317.96 1615.21,1323.63 1605.5,1325.5C 1604.5,1325.5 1603.5,1325.5 1602.5,1325.5C 1602.5,1216.5 1602.5,1107.5 1602.5,998.5 Z"/></g>
<g><path style="opacity:1" fill="#a6a6a6" d="M 382.5,1021.5 C 522.833,1021.5 663.167,1021.5 803.5,1021.5C 803.5,1029.5 803.5,1037.5 803.5,1045.5C 663.167,1045.5 522.833,1045.5 382.5,1045.5C 382.5,1037.5 382.5,1029.5 382.5,1021.5 Z"/></g>
<g><path style="opacity:1" fill="#a6a6a6" d="M 382.5,1092.5 C 507.167,1092.5 631.833,1092.5 756.5,1092.5C 756.5,1100.17 756.5,1107.83 756.5,1115.5C 631.833,1115.5 507.167,1115.5 382.5,1115.5C 382.5,1107.83 382.5,1100.17 382.5,1092.5 Z"/></g>
<g><path style="opacity:1" fill="#e0e0e0" d="M 382.5,1162.5 C 514.999,1161.5 647.666,1161.17 780.5,1161.5C 780.826,1169.68 780.492,1177.68 779.5,1185.5C 779.5,1177.83 779.5,1170.17 779.5,1162.5C 647.167,1162.5 514.833,1162.5 382.5,1162.5 Z"/></g>
<g><path style="opacity:1" fill="#a5a6a5" d="M 382.5,1162.5 C 514.833,1162.5 647.167,1162.5 779.5,1162.5C 779.5,1170.17 779.5,1177.83 779.5,1185.5C 647.167,1185.5 514.833,1185.5 382.5,1185.5C 382.5,1177.83 382.5,1170.17 382.5,1162.5 Z"/></g>
<g><path style="opacity:1" fill="#a5a6a5" d="M 475.5,1232.5 C 475.5,1240.17 475.5,1247.83 475.5,1255.5C 444.5,1255.5 413.5,1255.5 382.5,1255.5C 382.5,1247.83 382.5,1240.17 382.5,1232.5C 413.5,1232.5 444.5,1232.5 475.5,1232.5 Z"/></g>
<g><path style="opacity:1" fill="#cdcdcd" d="M 475.5,1232.5 C 476.492,1240.32 476.826,1248.32 476.5,1256.5C 444.996,1256.83 413.662,1256.5 382.5,1255.5C 413.5,1255.5 444.5,1255.5 475.5,1255.5C 475.5,1247.83 475.5,1240.17 475.5,1232.5 Z"/></g>
</svg>
