<?xml version="1.0" standalone="no"?>
<!DOCTYPE svg PUBLIC "-//W3C//DTD SVG 20010904//EN"
 "http://www.w3.org/TR/2001/REC-SVG-20010904/DTD/svg10.dtd">
<svg version="1.0" xmlns="http://www.w3.org/2000/svg"
 width="1024.000000pt" height="1024.000000pt" viewBox="0 0 1024.000000 1024.000000"
 preserveAspectRatio="xMidYMid meet">

<g transform="translate(0.000000,1024.000000) scale(0.100000,-0.100000)"
fill="#000000" stroke="none">
<path d="M1820 5120 l0 -1750 1420 0 1420 0 0 1467 0 1468 -282 282 -283 283
-1137 0 -1138 0 0 -1750z m2402 1313 l218 -217 0 -1313 0 -1313 -1197 2 -1198
3 -3 1528 -2 1527 982 0 982 0 218 -217z"/>
<path d="M6705 6859 c-152 -16 -341 -82 -481 -168 -244 -151 -427 -382 -518
-655 -44 -131 -56 -238 -56 -486 l0 -225 -46 -24 c-61 -33 -129 -110 -154
-178 -20 -54 -20 -67 -18 -782 l3 -726 34 -63 c38 -70 92 -120 167 -154 l49
-23 1165 0 1165 0 59 29 c75 37 131 93 165 165 l26 56 0 735 c0 734 0 735 -22
782 -28 61 -102 140 -152 163 l-39 17 -4 267 c-4 248 -7 273 -31 364 -99 373
-347 664 -696 817 -189 83 -394 112 -616 89z m404 -248 c287 -84 526 -295 644
-569 66 -154 70 -184 74 -569 l5 -353 65 0 c69 0 109 -16 134 -54 12 -17 15
-132 17 -686 2 -455 0 -677 -8 -702 -6 -20 -22 -46 -37 -57 -26 -21 -31 -21
-1152 -21 -1251 0 -1157 -5 -1187 66 -21 50 -21 1339 0 1389 19 46 61 65 140
65 l64 0 4 358 c4 355 4 357 32 447 111 365 380 617 747 700 99 22 361 14 458
-14z"/>
<path d="M6752 6420 c-311 -43 -565 -270 -642 -574 -18 -71 -20 -112 -20 -403
l0 -323 761 0 761 0 -4 343 c-4 324 -5 346 -27 412 -88 269 -289 460 -556 530
-70 18 -198 25 -273 15z"/>
</g>
</svg>
