<svg xmlns="http://www.w3.org/2000/svg" width="1024" height="1024" viewBox="0 0 1024 1024" version="1.1">
	<path d="M 476 48.041 C 383.921 56.628, 304.217 87.015, 232.652 140.818 C 200.036 165.339, 166.410 199.005, 141.579 232 C 87.472 303.896, 56 387.194, 48.922 477.241 C 47.370 496.986, 48.237 546.170, 50.451 564 C 62.283 659.273, 98.100 742.311, 157.850 812.988 C 216.790 882.708, 296.511 934.242, 385.015 959.836 C 461.009 981.813, 545.100 983.489, 623.313 964.587 C 772.174 928.610, 895.368 819.302, 949.311 675.332 C 971.047 617.323, 981.288 551.539, 978.058 490.685 C 975.581 444.022, 968.651 406.834, 954.544 364.500 C 908.468 226.230, 799.260 117.024, 661 70.960 C 629.193 60.364, 600.901 54.025, 564.901 49.430 C 550.349 47.572, 490.973 46.645, 476 48.041 M 204 512 L 204 664 324 664 L 444 664 444 533.741 L 444 403.483 422.242 381.741 L 400.483 360 302.242 360 L 204 360 204 512 M 669 361.476 C 631.181 367.791, 601.052 395.267, 590.570 433 C 587.929 442.509, 587.017 455.616, 587.008 484.198 L 587 511.895 581.750 512.198 L 576.500 512.500 576.244 588.250 L 575.987 664 685 664 L 794.013 664 793.756 588.250 L 793.500 512.500 787.817 512.202 L 782.134 511.904 781.754 475.702 C 781.329 435.032, 781.115 433.590, 772.950 416.156 C 760.353 389.262, 734.448 368.551, 705.743 362.423 C 695.347 360.205, 679.118 359.786, 669 361.476 M 668.500 382.631 C 664.650 383.438, 656.786 386.384, 651.025 389.177 C 641.704 393.696, 639.494 395.317, 630.983 403.878 C 622.903 412.004, 620.684 414.977, 616.705 423 C 608.853 438.835, 608.683 439.945, 608.244 478.250 L 607.858 512 684.929 512 L 762 512 761.983 485.250 C 761.973 470.538, 761.532 454.385, 761.002 449.355 C 756.279 404.534, 712.983 373.304, 668.500 382.631 M 226 397.500 L 226 403 275 403 L 324 403 324 397.500 L 324 392 275 392 L 226 392 226 397.500 M 226.198 430.250 L 226.500 435.500 324.250 435.755 L 422 436.010 422 430.505 L 422 425 323.948 425 L 225.895 425 226.198 430.250 M 226 463 L 226 468 313 468 L 400 468 400 463 L 400 458 313 458 L 226 458 226 463 M 226.667 490.667 C 226.300 491.033, 226 493.508, 226 496.167 L 226 501 318.500 501 L 411 501 411 495.500 L 411 490 319.167 490 C 268.658 490, 227.033 490.300, 226.667 490.667 M 226.198 528.250 L 226.500 533.500 324.250 533.755 L 422 534.010 422 528.505 L 422 523 323.948 523 L 225.895 523 226.198 528.250 M 226 561 L 226 566 313 566 L 400 566 400 561 L 400 556 313 556 L 226 556 226 561 M 226.667 588.667 C 226.300 589.033, 226 591.508, 226 594.167 L 226 599 318.500 599 L 411 599 411 593.500 L 411 588 319.167 588 C 268.658 588, 227.033 588.300, 226.667 588.667 M 226.197 626.230 L 226.500 631.500 248 631.500 L 269.500 631.500 269.500 626.500 L 269.500 621.500 247.697 621.230 L 225.894 620.961 226.197 626.230" stroke="none" fill="black" fill-rule="evenodd"/>
</svg>