<?xml version="1.0" encoding="UTF-8"?>
<!DOCTYPE svg PUBLIC "-//W3C//DTD SVG 1.1//EN" "http://www.w3.org/Graphics/SVG/1.1/DTD/svg11.dtd">
<svg xmlns="http://www.w3.org/2000/svg" version="1.1" width="720px" height="720px" style="shape-rendering:geometricPrecision; text-rendering:geometricPrecision; image-rendering:optimizeQuality; fill-rule:evenodd; clip-rule:evenodd" xmlns:xlink="http://www.w3.org/1999/xlink">
<g><path style="opacity:1" fill="#727272" d="M 81.5,70.5 C 83.337,70.6395 83.6704,71.3061 82.5,72.5C 81.7025,72.0431 81.3691,71.3764 81.5,70.5 Z"/></g>
<g><path style="opacity:1" fill="#139fec" d="M 340.5,126.5 C 425.478,122.418 494.312,153.418 547,219.5C 594.5,286.844 605.5,359.844 580,438.5C 549.623,516.213 494.123,565.713 413.5,587C 325.048,604.289 249.548,580.789 187,516.5C 135.432,456.575 117.099,387.575 132,309.5C 150.867,233.976 195.367,179.476 265.5,146C 289.636,135.668 314.636,129.168 340.5,126.5 Z"/></g>
<g><path style="opacity:1" fill="#040507" d="M 195.5,272.5 C 233.168,272.333 270.835,272.5 308.5,273C 317.667,282.167 326.833,291.333 336,300.5C 336.5,349.166 336.667,397.832 336.5,446.5C 289.5,446.5 242.5,446.5 195.5,446.5C 195.5,388.5 195.5,330.5 195.5,272.5 Z"/></g>
<g><path style="opacity:1" fill="#010203" d="M 436.5,272.5 C 472.528,271.25 495.361,287.917 505,322.5C 505.5,331.827 505.666,341.161 505.5,350.5C 511.937,351.779 515.437,355.779 516,362.5C 516.667,386.5 516.667,410.5 516,434.5C 514.066,440.767 509.9,444.601 503.5,446C 464.5,446.667 425.5,446.667 386.5,446C 380.836,443.668 377.336,439.501 376,433.5C 375.333,409.167 375.333,384.833 376,360.5C 377.601,355.233 380.935,351.567 386,349.5C 382.148,321.408 391.315,298.908 413.5,282C 420.834,277.655 428.5,274.488 436.5,272.5 Z"/></g>
<g><path style="opacity:1" fill="#fefefe" d="M 324.5,304.5 C 325.499,347.997 325.832,391.663 325.5,435.5C 285.833,435.5 246.167,435.5 206.5,435.5C 206.5,384.833 206.5,334.167 206.5,283.5C 238.833,283.5 271.167,283.5 303.5,283.5C 303.5,290.5 303.5,297.5 303.5,304.5C 310.5,304.5 317.5,304.5 324.5,304.5 Z"/></g>
<g><path style="opacity:1" fill="#c3c3c3" d="M 495.5,359.5 C 491.5,359.5 487.5,359.5 483.5,359.5C 483.667,347.829 483.5,336.162 483,324.5C 475.239,301.027 459.072,291.527 434.5,296C 420.254,300.91 411.754,310.743 409,325.5C 408.5,336.828 408.333,348.162 408.5,359.5C 404.5,359.5 400.5,359.5 396.5,359.5C 396.333,347.829 396.5,336.162 397,324.5C 402.904,298.924 418.904,285.257 445,283.5C 471.91,284.628 488.577,298.294 495,324.5C 495.5,336.162 495.667,347.829 495.5,359.5 Z"/></g>
<g><path style="opacity:1" fill="#c1c1c1" d="M 324.5,304.5 C 317.5,304.5 310.5,304.5 303.5,304.5C 303.5,297.5 303.5,290.5 303.5,283.5C 271.167,283.5 238.833,283.5 206.5,283.5C 206.5,334.167 206.5,384.833 206.5,435.5C 246.167,435.5 285.833,435.5 325.5,435.5C 285.67,436.499 245.67,436.832 205.5,436.5C 205.5,385.167 205.5,333.833 205.5,282.5C 238.507,282.167 271.507,282.5 304.5,283.5C 311.188,290.52 317.855,297.52 324.5,304.5 Z"/></g>
<g><path style="opacity:1" fill="#030201" d="M 483.5,359.5 C 458.5,359.5 433.5,359.5 408.5,359.5C 408.333,348.162 408.5,336.828 409,325.5C 411.754,310.743 420.254,300.91 434.5,296C 459.072,291.527 475.239,301.027 483,324.5C 483.5,336.162 483.667,347.829 483.5,359.5 Z"/></g>
<g><path style="opacity:1" fill="#a6a6a6" d="M 216.5,299.5 C 232.833,299.5 249.167,299.5 265.5,299.5C 265.5,301.167 265.5,302.833 265.5,304.5C 249.167,304.5 232.833,304.5 216.5,304.5C 216.5,302.833 216.5,301.167 216.5,299.5 Z"/></g>
<g><path style="opacity:1" fill="#a4a4a4" d="M 314.5,316.5 C 314.5,317.833 314.5,319.167 314.5,320.5C 282.167,320.5 249.833,320.5 217.5,320.5C 217.5,319.167 217.5,317.833 217.5,316.5C 249.833,316.5 282.167,316.5 314.5,316.5 Z"/></g>
<g><path style="opacity:1" fill="#bfbfbf" d="M 314.5,316.5 C 282.167,316.5 249.833,316.5 217.5,316.5C 217.5,317.833 217.5,319.167 217.5,320.5C 249.833,320.5 282.167,320.5 314.5,320.5C 282.004,321.498 249.338,321.832 216.5,321.5C 216.5,319.5 216.5,317.5 216.5,315.5C 249.338,315.168 282.004,315.502 314.5,316.5 Z"/></g>
<g><path style="opacity:1" fill="#a5a5a5" d="M 216.5,332.5 C 245.5,332.5 274.5,332.5 303.5,332.5C 303.5,334.167 303.5,335.833 303.5,337.5C 274.5,337.5 245.5,337.5 216.5,337.5C 216.5,335.833 216.5,334.167 216.5,332.5 Z"/></g>
<g><path style="opacity:1" fill="#a6a6a6" d="M 308.5,348.5 C 308.5,350.167 308.5,351.833 308.5,353.5C 277.833,353.5 247.167,353.5 216.5,353.5C 216.5,351.833 216.5,350.167 216.5,348.5C 247.167,348.5 277.833,348.5 308.5,348.5 Z"/></g>
<g><path style="opacity:1" fill="#d2d2d2" d="M 308.5,348.5 C 309.461,350.265 309.795,352.265 309.5,354.5C 278.329,354.831 247.329,354.498 216.5,353.5C 247.167,353.5 277.833,353.5 308.5,353.5C 308.5,351.833 308.5,350.167 308.5,348.5 Z"/></g>
<g><path style="opacity:1" fill="#fec73c" d="M 391.5,359.5 C 393.167,359.5 394.833,359.5 396.5,359.5C 400.5,359.5 404.5,359.5 408.5,359.5C 433.5,359.5 458.5,359.5 483.5,359.5C 487.5,359.5 491.5,359.5 495.5,359.5C 497.167,359.5 498.833,359.5 500.5,359.5C 500.5,384.833 500.5,410.167 500.5,435.5C 464.167,435.5 427.833,435.5 391.5,435.5C 391.5,410.167 391.5,384.833 391.5,359.5 Z"/></g>
<g><path style="opacity:1" fill="#cb8f09" d="M 500.5,359.5 C 502.903,359.393 504.736,360.393 506,362.5C 506.667,385.833 506.667,409.167 506,432.5C 505.167,433.333 504.333,434.167 503.5,435C 484.254,436.155 464.921,436.655 445.5,436.5C 426.664,436.5 407.997,436.167 389.5,435.5C 390.167,435.5 390.833,435.5 391.5,435.5C 427.833,435.5 464.167,435.5 500.5,435.5C 500.5,410.167 500.5,384.833 500.5,359.5 Z"/></g>
<g><path style="opacity:1" fill="#de9a00" d="M 391.5,359.5 C 391.5,384.833 391.5,410.167 391.5,435.5C 390.833,435.5 390.167,435.5 389.5,435.5C 388.206,434.71 387.039,433.71 386,432.5C 385.333,409.167 385.333,385.833 386,362.5C 387.264,360.393 389.097,359.393 391.5,359.5 Z"/></g>
<g><path style="opacity:1" fill="#a4a4a4" d="M 314.5,365.5 C 314.5,366.833 314.5,368.167 314.5,369.5C 282.167,369.5 249.833,369.5 217.5,369.5C 217.5,368.167 217.5,366.833 217.5,365.5C 249.833,365.5 282.167,365.5 314.5,365.5 Z"/></g>
<g><path style="opacity:1" fill="#bdbdbd" d="M 314.5,365.5 C 282.167,365.5 249.833,365.5 217.5,365.5C 217.5,366.833 217.5,368.167 217.5,369.5C 249.833,369.5 282.167,369.5 314.5,369.5C 282.004,370.498 249.338,370.832 216.5,370.5C 216.5,368.5 216.5,366.5 216.5,364.5C 249.338,364.168 282.004,364.502 314.5,365.5 Z"/></g>
<g><path style="opacity:1" fill="#a5a5a5" d="M 216.5,381.5 C 245.5,381.5 274.5,381.5 303.5,381.5C 303.5,383.167 303.5,384.833 303.5,386.5C 274.5,386.5 245.5,386.5 216.5,386.5C 216.5,384.833 216.5,383.167 216.5,381.5 Z"/></g>
<g><path style="opacity:1" fill="#a7a7a7" d="M 308.5,397.5 C 308.5,399.167 308.5,400.833 308.5,402.5C 277.833,402.5 247.167,402.5 216.5,402.5C 216.5,400.833 216.5,399.167 216.5,397.5C 247.167,397.5 277.833,397.5 308.5,397.5 Z"/></g>
<g><path style="opacity:1" fill="#d2d2d2" d="M 308.5,397.5 C 309.461,399.265 309.795,401.265 309.5,403.5C 278.329,403.831 247.329,403.498 216.5,402.5C 247.167,402.5 277.833,402.5 308.5,402.5C 308.5,400.833 308.5,399.167 308.5,397.5 Z"/></g>
<g><path style="opacity:1" fill="#ababab" d="M 216.5,413.5 C 223.833,413.5 231.167,413.5 238.5,413.5C 238.5,415.5 238.5,417.5 238.5,419.5C 231.167,419.5 223.833,419.5 216.5,419.5C 216.5,417.5 216.5,415.5 216.5,413.5 Z"/></g>
</svg>
